<?xml version="1.0" encoding="UTF-8"?>
<svg id="Camada_1" xmlns="http://www.w3.org/2000/svg" version="1.1" viewBox="0 0 42 42">
  <!-- Generator: Adobe Illustrator 29.5.1, SVG Export Plug-In . SVG Version: 2.1.0 Build 141)  -->
  <defs>
    <style>
      .st0 {
        fill: #547259;
      }
    </style>
  </defs>
  <path class="st0" d="M32.1452437,5.5382442l-5.5703308,5.5703308c-.3757531-2.0831257-2.3270298-3.1971916-5.5835287-3.1971916-3.6520094,0-5.6494335,1.3975213-5.6494335,3.9948101v10.4353012l-9.1036861,9.1036847c-.0791027-.4219034-.1186526-.8569639-.1186526-1.3052222V11.8600418c0-5.4977876,5.656031-8.8399866,14.8717722-8.8399866,4.7727122,0,8.5829241.8965152,11.1538594,2.5181891Z"/>
  <path class="st0" d="M35.8631579,11.8600433v18.279914c0,5.4977876-5.6493926,8.8399837-14.8717707,8.8399837-4.7594763,0-8.5697276-.8899601-11.1340231-2.5115872l5.5637333-5.5637333c.3823126,2.0765268,2.3203914,3.1839937,5.5702899,3.1839937,3.6520474,0,5.656031-1.3975228,5.656031-3.9948101v-10.4221048l9.1036847-9.1036861c.0725023.4153059.1120551.8437674.1120551,1.2920301Z"/>
</svg>