<?xml version="1.0" encoding="UTF-8"?>
<svg id="Camada_1" xmlns="http://www.w3.org/2000/svg" version="1.1" viewBox="0 0 330.8805542 67.3905945">
  <!-- Generator: Adobe Illustrator 29.5.1, SVG Export Plug-In . SVG Version: 2.1.0 Build 141)  -->
  <defs>
    <style>
      .st0 {
        fill: #547259;
      }

      .st1 {
        fill: #fff;
      }
    </style>
  </defs>
  <g>
    <path class="st0" d="M47.114727,7.7772365l-9.5576744,9.557673c-.644722-3.5742645-3.9927597-5.4857979-9.5803185-5.4857979-6.2661819,0-9.6933975,2.397892-9.6933975,6.8543663v17.9050732l-15.620266,15.6202621c-.1357257-.7239075-.2035861-1.4703941-.2035861-2.2395248v-31.3650036c.0000036-9.433197,9.7047219-15.1678019,25.5172534-15.1678019,8.1891022,0,14.7267342,1.5382566,19.137989,4.3207536Z"/>
    <path class="st0" d="M53.4939919,18.6242905v31.3650017c0,9.4332008-9.6933289,15.1677971-25.5172482,15.1677971-8.1663952,0-14.7040911-1.5270081-19.1039543-4.3094254l9.5463524-9.5463524c.6559792,3.5629425,3.981369,5.4631538,9.5576019,5.4631538,6.2662487,0,9.7047176-2.3978958,9.7047176-6.8543663v-17.8824348l15.620266-15.620266c.1244011.7125893.1922646,1.4477501.1922646,2.2168922Z"/>
  </g>
  <g>
    <path class="st0" d="M70.2140198,58.3211365l14.8828125-8.9033203v-.3564453h-14.2617188v-5.3417969h29.765625v4.9853516l-14.8828125,8.5478516v.3564453h15.8125v5.3417969h-31.3164062v-4.6298828Z"/>
    <path class="st0" d="M105.2501526,36.9529724h11.7822266v4.2734375h-11.7822266v-4.2734375ZM105.2501526,43.719574h11.7822266v19.2314453h-11.7822266v-19.2314453Z"/>
    <path class="st0" d="M123.2315979,36.9529724h11.7822266v4.2734375h-11.7822266v-4.2734375ZM123.2315979,43.719574h11.7822266v19.2314453h-11.7822266v-19.2314453Z"/>
    <path class="st0" d="M165.0890198,43.719574v6.4101562h-4.6513672c-5.2705078,0-7.4414062,1.4248047-7.4414062,4.4521484v8.3691406h-11.7822266v-19.2314453h11.7822266v6.2324219h.6201172c.6201172-5.5205078,3.1005859-6.5888672,8.0615234-6.5888672,1.7978516,0,2.7285156.1787109,3.4111328.3564453Z"/>
    <path class="st0" d="M203.224762,52.8006287v1.0683594c0,5.3427734-5.8916016,9.6162109-17.9833984,9.6162109s-17.9833984-4.2734375-17.9833984-9.6162109v-1.0683594c0-5.3417969,5.8916016-9.6152344,17.9833984-9.6152344s17.9833984,4.2734375,17.9833984,9.6152344ZM185.2413635,58.1434021c3.7207031,0,5.890625-.7128906,5.890625-3.7392578v-2.1376953c0-3.0263672-2.1699219-3.7392578-5.890625-3.7392578s-5.890625.7128906-5.890625,3.7392578v2.1376953c0,3.0263672,2.1699219,3.7392578,5.890625,3.7392578Z"/>
    <path class="st1" d="M229.8888245,55.1160583h11.1621094c0,4.4511719-4.6513672,8.3691406-16.4326172,8.3691406-12.0927734,0-17.6738281-4.2734375-17.6738281-9.6162109v-1.0683594c0-5.3417969,5.5810547-9.6152344,17.6738281-9.6152344,11.78125,0,16.4326172,3.9169922,16.4326172,8.1914062h-11.1621094l-.0615234-.5341797c-.125-1.2470703-1.4882812-2.3154297-5.2089844-2.3154297-4.03125,0-5.5820312,1.0683594-5.5820312,3.7392578v2.1376953c0,2.6708984,1.5507812,3.7392578,5.5820312,3.7392578,3.7207031,0,5.0839844-1.2470703,5.2089844-2.4931641l.0615234-.5341797Z"/>
    <path class="st1" d="M269.5108948,43.719574v6.4101562h-4.6503906c-5.2714844,0-7.4414062,1.4248047-7.4414062,4.4521484v8.3691406h-11.7822266v-19.2314453h11.7822266v6.2324219h.6201172c.6201172-5.5205078,3.1005859-6.5888672,8.0615234-6.5888672,1.7988281,0,2.7285156.1787109,3.4101562.3564453Z"/>
    <path class="st1" d="M328.421051,49.915863v13.0351562h-11.7822266v-11.21875c0-1.9580078-1.5498047-2.8486328-4.9609375-2.8486328s-4.9609375.890625-4.9609375,2.8486328v11.21875h-11.7822266v-11.21875c0-1.9580078-1.5507812-2.8486328-4.9609375-2.8486328s-4.9609375.890625-4.9609375,2.8486328v11.21875h-11.7822266v-19.2314453h11.7822266v4.2734375h.6201172c1.6748047-3.2412109,4.3408203-4.8076172,10.6660156-4.8076172,6.5107422,0,9.4873047,1.9589844,10.1083984,4.8076172h.6191406c1.6748047-3.2412109,4.6513672-4.8076172,10.9765625-4.8076172,6.5117188,0,10.4179688,1.9228516,10.4179688,6.7304688Z"/>
  </g>
</svg>