<?xml version="1.0" encoding="UTF-8"?>
<svg id="Camada_1" xmlns="http://www.w3.org/2000/svg" version="1.1" viewBox="0 0 330.8805407 67.3905979">
  <!-- Generator: Adobe Illustrator 29.5.1, SVG Export Plug-In . SVG Version: 2.1.0 Build 141)  -->
  <defs>
    <style>
      .st0 {
        fill: #547259;
      }

      .st1 {
        fill: #222;
      }
    </style>
  </defs>
  <g>
    <path class="st0" d="M47.1147288,7.7772364l-9.5576724,9.5576724c-.6447239-3.5742641-3.9927591-5.485798-9.5803176-5.485798-6.2661826,0-9.6933982,2.3978919-9.6933982,6.8543661v17.905075l-15.6202663,15.6202638c-.1357258-.7239094-.2035862-1.4703938-.2035862-2.2395234v-31.3650034C2.4594881,9.1910874,12.1642064,3.4564829,27.9767387,3.4564829c8.1891043,0,14.7267335,1.5382567,19.13799,4.3207535Z"/>
    <path class="st0" d="M53.4939919,18.6242914v31.3650009c0,9.4332015-9.693328,15.167801-25.5172482,15.167801-8.1663939,0-14.7040908-1.5270093-19.1039545-4.3094259l9.5463523-9.5463523c.6559788,3.5629415,3.9813688,5.4631528,9.5576022,5.4631528,6.2662477,0,9.7047183-2.3978944,9.7047183-6.8543661v-17.8824323l15.6202638-15.6202663c.1244007.7125893.1922661,1.4477511.1922661,2.2168882Z"/>
  </g>
  <g>
    <path class="st0" d="M70.2140214,58.3211349l14.8828125-8.9033203v-.3564453h-14.2617188v-5.3417969h29.765625v4.9853516l-14.8828125,8.5478516v.3564453h15.8125v5.3417969h-31.3164062v-4.6298828Z"/>
    <path class="st0" d="M105.2501542,36.9529708h11.7822266v4.2734375h-11.7822266v-4.2734375ZM105.2501542,43.7195724h11.7822266v19.2314453h-11.7822266v-19.2314453Z"/>
    <path class="st0" d="M123.2315995,36.9529708h11.7822266v4.2734375h-11.7822266v-4.2734375ZM123.2315995,43.7195724h11.7822266v19.2314453h-11.7822266v-19.2314453Z"/>
    <path class="st0" d="M165.0890214,43.7195724v6.4101562h-4.6513672c-5.2705078,0-7.4414062,1.4248047-7.4414062,4.4521484v8.3691406h-11.7822266v-19.2314453h11.7822266v6.2324219h.6201172c.6201172-5.5205078,3.1005859-6.5888672,8.0615234-6.5888672,1.7978516,0,2.7285156.1787109,3.4111328.3564453Z"/>
    <path class="st0" d="M203.2247636,52.8006271v1.0683594c0,5.3427734-5.8916016,9.6162109-17.9833984,9.6162109s-17.9833984-4.2734375-17.9833984-9.6162109v-1.0683594c0-5.3417969,5.8916016-9.6152344,17.9833984-9.6152344s17.9833984,4.2734375,17.9833984,9.6152344ZM185.2413651,58.1434005c3.7207031,0,5.890625-.7128906,5.890625-3.7392578v-2.1376953c0-3.0263672-2.1699219-3.7392578-5.890625-3.7392578s-5.890625.7128906-5.890625,3.7392578v2.1376953c0,3.0263672,2.1699219,3.7392578,5.890625,3.7392578Z"/>
    <path class="st1" d="M229.8888261,55.1160567h11.1621094c0,4.4511719-4.6513672,8.3691406-16.4326172,8.3691406-12.0927734,0-17.6738281-4.2734375-17.6738281-9.6162109v-1.0683594c0-5.3417969,5.5810547-9.6152344,17.6738281-9.6152344,11.78125,0,16.4326172,3.9169922,16.4326172,8.1914062h-11.1621094l-.0615234-.5341797c-.125-1.2470703-1.4882812-2.3154297-5.2089844-2.3154297-4.03125,0-5.5820312,1.0683594-5.5820312,3.7392578v2.1376953c0,2.6708984,1.5507812,3.7392578,5.5820312,3.7392578,3.7207031,0,5.0839844-1.2470703,5.2089844-2.4931641l.0615234-.5341797Z"/>
    <path class="st1" d="M269.5108964,43.7195724v6.4101562h-4.6503906c-5.2714844,0-7.4414062,1.4248047-7.4414062,4.4521484v8.3691406h-11.7822266v-19.2314453h11.7822266v6.2324219h.6201172c.6201172-5.5205078,3.1005859-6.5888672,8.0615234-6.5888672,1.7988281,0,2.7285156.1787109,3.4101562.3564453Z"/>
    <path class="st1" d="M328.4210526,49.9158614v13.0351562h-11.7822266v-11.21875c0-1.9580078-1.5498047-2.8486328-4.9609375-2.8486328s-4.9609375.890625-4.9609375,2.8486328v11.21875h-11.7822266v-11.21875c0-1.9580078-1.5507812-2.8486328-4.9609375-2.8486328s-4.9609375.890625-4.9609375,2.8486328v11.21875h-11.7822266v-19.2314453h11.7822266v4.2734375h.6201172c1.6748047-3.2412109,4.3408203-4.8076172,10.6660156-4.8076172,6.5107422,0,9.4873047,1.9589844,10.1083984,4.8076172h.6191406c1.6748047-3.2412109,4.6513672-4.8076172,10.9765625-4.8076172,6.5117188,0,10.4179688,1.9228516,10.4179688,6.7304688Z"/>
  </g>
</svg>