<?xml version="1.0" encoding="UTF-8"?>
<svg id="Camada_1" xmlns="http://www.w3.org/2000/svg" version="1.1" viewBox="0 0 42 42">
  <!-- Generator: Adobe Illustrator 29.5.1, SVG Export Plug-In . SVG Version: 2.1.0 Build 141)  -->
  <defs>
    <style>
      .st0 {
        fill: #f7faf2;
      }
    </style>
  </defs>
  <path class="st0" d="M20.9913883,3.5200577c4.2731762,0,7.8307209.7314072,10.3443298,2.1206207l-4.5213127,4.5213032c-.7537174-1.7820683-2.7817612-2.750597-5.8230171-2.750597-5.3505297,0-6.1494389,2.8161411-6.1494389,4.494812v10.228199l-8.2190614,8.2190619c-.0021849-.0709276-.0032787-.1420908-.0032787-.213501V11.8600464c0-5.1442909,5.5069394-8.3399887,14.371779-8.3399887M20.9913883,3.0200577c-9.2157488,0-14.871779,3.3421974-14.871779,8.8399887v18.2799101c0,.4482603.0395498.8833199.11866,1.3052197l9.1036801-9.1036806v-10.4352989c0-2.59729,1.9974289-3.994812,5.6494389-3.994812,3.2564907,0,5.2077713,1.1140709,5.5835209,3.1971912l5.5703392-5.5703297c-2.57094-1.6216812-6.3811493-2.5181885-11.1538601-2.5181885h0Z"/>
  <path class="st0" d="M35.3605423,11.6656666c.0017509.0645084.0026207.129261.0026207.1943798v18.279911c0,5.14429-5.5069408,8.3399899-14.3717709,8.3399899-4.2723331,0-7.8232098-.7290428-10.3249111-2.1136096l4.5173626-4.5173626c.7569513,1.7749224,2.779686,2.7396421,5.8075485,2.7396421,5.3562698,0,6.1560307-2.8161402,6.1560307-4.4948101v-10.2150097l8.2131195-8.213131M35.7511024,10.5680065l-9.1036797,9.1036911v10.4221096c0,2.59729-2.0039902,3.9948101-5.6560307,3.9948101-3.2499008,0-5.1879807-1.1074705-5.5702906-3.184l-5.5637398,5.5637398c2.5643005,1.6216202,6.3745508,2.5115902,11.1340303,2.5115902,9.2223701,0,14.8717709-3.3422,14.8717709-8.8399899V11.8600464c0-.4482689-.0395622-.87673-.1120605-1.2920399h0Z"/>
</svg>